<svg width="24" height="28" viewBox="0 0 24 28" fill="none" xmlns="http://www.w3.org/2000/svg">
<path fill-rule="evenodd" clip-rule="evenodd" d="M10.9005 4.12695C6.82681 4.12695 3.52441 7.97975 3.52441 12.7324C3.52441 17.4851 6.82681 21.3379 10.9005 21.3379C14.9742 21.3379 18.2766 17.4851 18.2766 12.7324C18.2766 7.97975 14.9742 4.12695 10.9005 4.12695ZM2.02441 12.7324C2.02441 7.01325 5.99838 2.37695 10.9005 2.37695C15.8027 2.37695 19.7766 7.01325 19.7766 12.7324C19.7766 18.4516 15.8027 23.0879 10.9005 23.0879C5.99838 23.0879 2.02441 18.4516 2.02441 12.7324Z" fill="#727272"/>
<path fill-rule="evenodd" clip-rule="evenodd" d="M19.2289 24.0363L16.0828 20.3661C15.7899 20.0244 15.7899 19.4704 16.0828 19.1287C16.3756 18.787 16.8505 18.7869 17.1434 19.1286L20.2896 22.7988C20.5825 23.1404 20.5825 23.6945 20.2896 24.0362C19.9967 24.3779 19.5219 24.3779 19.2289 24.0363Z" fill="#727272"/>
</svg>
