<svg width="20" height="22" viewBox="0 0 20 22" fill="none" xmlns="http://www.w3.org/2000/svg">
<path d="M17.25 4.25L16.63 14.275C16.472 16.836 16.393 18.117 15.75 19.038C15.4326 19.4932 15.0239 19.8773 14.55 20.166C13.593 20.75 12.31 20.75 9.744 20.75C7.174 20.75 5.889 20.75 4.93 20.165C4.45589 19.8757 4.04721 19.4909 3.73 19.035C3.088 18.113 3.01 16.83 2.856 14.265L2.25 4.25M0.75 4.25H18.75M13.806 4.25L13.123 2.842C12.67 1.906 12.443 1.439 12.052 1.147C11.9651 1.08232 11.8732 1.02479 11.777 0.975C11.344 0.75 10.824 0.75 9.785 0.75C8.719 0.75 8.186 0.75 7.745 0.984C7.64752 1.03621 7.55453 1.09642 7.467 1.164C7.072 1.467 6.851 1.952 6.409 2.921L5.803 4.25M7.25 15.25V9.25M12.25 15.25V9.25" stroke="#757779" stroke-width="1.5" stroke-linecap="round" stroke-linejoin="round"/>
</svg>
